<?xml version="1.0" encoding="utf-8"?>
<!-- Designed by Vexels.com - 2020 All Rights Reserved - https://vexels.com/terms-and-conditions/  -->
<svg version="1.1" id="Layer_1" xmlns="http://www.w3.org/2000/svg" xmlns:xlink="http://www.w3.org/1999/xlink" x="0px" y="0px"
	 viewBox="0 0 1200 1200" enable-background="new 0 0 1200 1200" xml:space="preserve">
<g>
	<g>
		<path fill="#EFB14A" d="M1041.66,605.425c2.107,0.967,4.169,2.055,6.33,2.88c5.86,2.237,11.774,4.335,17.647,6.537
			c15.616,5.854,27.077,17.061,37.729,29.316c12.054,13.868,11.403,35.89-3.556,47.131c-1.092-1.539-1.849-3.73-3.338-4.491
			c-4.232-2.164-8.856-3.03-13.712-2.913c-18.094,0.437-36.156-0.06-54.155-2.208c-2.792-0.333-5.588-0.378-7.36-2.936
			c-3.346-4.83-7.64-4.689-12.526-2.79c-5.117,1.989-10.339,3.708-15.516,5.545c-0.189-3.11-0.031-6.297-0.706-9.298
			c-0.362-1.608-1.897-3.643-3.363-4.147c-2.164-0.743-3.253,1.323-3.87,3.318c-1.839,5.945-3.729,11.875-5.599,17.81
			c-2.679,0.234-5.477,0.053-8.015,0.779c-8.294,2.374-15.999,6.128-23.106,11.028c-5.123,3.533-10.261,7.062-15.185,10.862
			c-4.834,3.731-10.147,5.669-16.225,5.589c-2.778-2.871-2.323-6.519-2.358-10.024c-0.074-7.471,0.32-14.972-0.218-22.407
			c-0.815-11.269-11.338-15.96-20.439-9.37c-1.567,1.135-3.002,2.57-4.177,4.112c-12.185,15.984-23.126,32.69-30.146,51.707
			c-0.922,2.498-2.784,4.648-4.211,6.96c-4.264,0.5-8.538,0.928-12.79,1.515c-13.167,1.818-26.276,4.319-39.501,5.372
			c-12.469,0.993-24.808,3.954-37.441,2.874c-1.14-0.098-2.319,0.353-3.488,0.474c-5.438,0.566-10.874,1.526-16.318,1.581
			c-23.565,0.238-47.134,0.208-70.7,0.273c-1.46-1.828-2.819-3.746-4.401-5.459c-4.241-4.592-8.568-5.108-13.292-0.844
			c-2.486,2.244-3.953,5.618-5.88,8.482c-9.011-0.177-17.948-0.957-26.933-1.843c-13.99-1.378-28.156-0.672-42.215-2.634
			c-6.169-0.861-12.497-0.747-18.582-2.476c-1.928-2.482-4.16-4.786-5.733-7.476c-7.161-12.247-14.408-24.457-21.102-36.96
			c-6.891-12.871-12.957-26.183-19.806-39.079c-4.615-8.689-9.688-17.169-15.093-25.389c-2.776-4.222-6.209-8.384-10.249-11.333
			c-10.531-7.685-17.964-6.532-25.45,0.618c-3.019,2.884-4.458,6.233-4.607,10.476c-0.217,6.145,1.705,11.685,4.092,17.101
			c2.227,5.051,5.127,9.815,7.221,14.914c2.085,5.075,4.695,10.334,5.044,15.645c0.981,14.911,3.904,29.72,2.796,44.756
			c-10.899-3.238-21.915-6.131-32.66-9.812c-9.637-3.301-19.042-7.32-28.421-11.322c-4.068-1.736-8.097-2.932-12.519-2.664
			l0.061,0.069c-0.799-0.78-1.598-1.56-2.396-2.339c-2.708-3.844-5.822-7.466-8.053-11.569
			c-9.999-18.386-17.176-37.87-23.079-57.957c-4.537-15.438-10.44-30.48-15.915-45.633c-2.037-5.637-5.584-10.37-10.191-14.257
			c-7.18-6.058-16.914-7.357-24.114-2.816c-5.035,3.175-9.349,7.261-11.83,12.848c-4.885,11-4.714,22.919-6.126,34.548
			c2.913,9.195,1.821,18.722,2.328,28.113c-2.39-1.196-5.014-2.07-7.125-3.636c-9.395-6.97-19.153-13.269-29.676-18.465
			c-5.745-2.837-11.489-4.684-17.9-4.206c-1.33-2.83-3.15-5.539-3.881-8.516c-1.3-5.291-1.939-10.744-2.855-16.129
			c-1.483-8.71,3.43-16.665,3.478-25.148c-4.159-3.304-8.659-2.234-12.764-2.111c-11.432,0.344-22.573-1.249-33.708-3.592
			c-4.142-0.871-8.506-0.69-12.769-0.988c-0.851-0.819-1.821-1.546-2.533-2.471c-9.148-11.879-18.249-23.795-27.389-35.68
			c-1.867-2.428-3.145-5.683-7.077-5.455c0,0.003-0.041,0.154-0.041,0.154c-0.729-6.095-1.457-12.191-2.186-18.286
			c3.814,1.975,7.864,3.603,11.39,6.001c6.695,4.553,13.93,7.175,21.941,8.129c6.64,0.79,13.265,1.837,19.827,3.126
			c11.161,2.193,22.393,3.849,31.881,11.371c4.824,3.824,10.459,2.256,14.987-2.169c5.109-4.995,5.941-12.195,1.513-19.568
			c-7.51-12.505-15.269-24.864-23.157-37.135c-7.03-10.937-14.608-21.524-21.526-32.528c-10.512-16.721-19.842-34.074-27.181-52.479
			c-3.783-9.488-8.239-18.707-12.391-28.047c4.315-11.773,9.995-22.808,17.69-32.756c2.004,2.399,3.892,4.906,6.029,7.179
			c14.259,15.168,28.589,30.269,42.839,45.444c1.602,1.706,2.847,3.745,4.267,5.622c11.383,15.046,22.911,29.986,36.939,42.722
			c4.633,4.206,9.319,8.718,14.775,11.57c9.51,4.97,17.961,11.153,25.806,18.327c-0.998,4.572,0.788,8.444,3.188,12.088
			c3.001,4.558,6.27,8.942,9.199,13.544c8.151,12.808,16.524,25.521,20.256,40.543c-1.195,1.025-2.623,1.875-3.544,3.105
			c-4.405,5.885-9.58,6.531-16.554,4.394c-15.847-4.857-32.075-3.586-47.811,0.474c-6.631,1.711-12.643,6.162-18.626,9.869
			c-2.279,1.411-3.672,4.228-0.704,7.367c4.057-0.703,8.025-1.877,11.729-4.379c5.628-3.803,11.917-6.022,18.775-6.386
			c2.73,4.585,7.708,5.122,12.107,6.492c18.725,5.83,37.54,11.373,56.24,17.28c6.34,2.003,12.614,4.402,18.613,7.261
			c13.098,6.241,26,12.892,38.982,19.375c-2.891,6.733-1.227,14.159-2.996,20.95c-2.246,8.624-1.552,17.261-1.449,25.887
			c0.04,3.365,1.344,6.952,2.913,10.006c2.154,4.193,7.506,5.285,11.15,2.271c2.648-2.19,4.967-5.057,6.658-8.058
			c2.309-4.099,4.224-8.499,5.699-12.972c2.953-8.951,7.613-17.322,9.126-26.758c3.785,1.079,7.6,2.065,11.35,3.253
			c17.308,5.483,34.524,11.271,51.917,16.468c15.87,4.742,31.924,8.867,47.897,13.264c0.1,1.956-0.026,3.955,0.335,5.862
			c3.538,18.685,12.482,35.34,19.917,52.556c0.596,1.38,1.831,2.533,2.92,3.643c6.848,6.986,17.22,5.79,21.653-2.818
			c1.549-3.008,2.162-6.661,2.506-10.089c0.468-4.664-0.541-9.588,0.53-14.053c1.952-8.133,1.855-16.304,2.133-24.505
			c4.669,0.527,9.339,1.054,14.008,1.582c2.331,2.251,5.093,2.133,7.959,1.451c1.311,0.121,2.621,0.242,3.932,0.364
			c1.664,0.875,3.235,2.089,5.006,2.57c13.834,3.756,28.084,5.161,42.21,7.276c0.224,2.349,0.08,4.806,0.728,7.033
			c4.727,16.248,9.606,32.452,14.462,48.663c0.565,1.886,0.934,3.959,1.995,5.543c3.042,4.538,5.756,9.592,9.766,13.115
			c6.456,5.673,14.889,3.414,18.541-4.412c1.285-2.754,1.869-6.018,2.012-9.085c0.294-6.295,0.045-12.613,0.075-18.922
			c0.04-8.255-0.183-16.45,1.935-24.643c1.657-6.406,1.884-13.182,2.747-19.794c1.383-0.737,2.686-1.77,4.16-2.167
			c24.328-6.567,48.673-13.07,73.03-19.526c1.886-0.5,3.896-0.531,5.849-0.78c-2.452,11.286-7.438,21.603-12.961,31.566
			c-6.009,10.84-9.694,22.381-12.115,34.372c-0.841,4.167-0.937,8.619-0.541,12.862c0.412,4.412,5.642,6.299,8.978,3.481
			c1.768-1.493,3.344-3.352,4.572-5.318c3.128-5.008,5.783-10.32,9.044-15.233c4.996-7.531,9.681-15.425,15.688-22.092
			c10.004-11.104,20.934-21.28,33.327-29.939c7.296-5.098,14.364-11.068,18.121-19.73c4.306-0.486,8.613-0.965,12.919-1.458
			c4.312-0.495,8.615-1.083,12.935-1.484c3.928-0.365,7.879-0.48,11.811-0.803c4.326-0.355,8.636-0.912,12.964-1.216
			c4.328-0.304,8.668-0.443,13.006-0.584c4.338-0.142,8.679-0.233,13.02-0.279c3.946-0.041,7.893-0.024,11.839,0.028
			c4.341,0.058,8.685,0.084,13.019,0.31c4.33,0.226,8.649,0.661,12.97,1.044c4.323,0.382,8.643,0.793,12.961,1.23
			c3.924,0.398,7.844,0.839,11.765,1.279c4.313,0.484,8.648,0.837,12.932,1.515c7.341,1.162,7.34,1.164,11.901-0.15
			c-10.32-8.698-31.194-15.494-52.717-17.161c7.574-3.354,15.337-2.009,23.082-0.903
			C1026.215,603.135,1033.936,604.291,1041.66,605.425z"/>
		<path fill="#EFB14A" d="M308.054,214.8c15.907-7.327,32.314-12.87,49.956-14.006c0.711,5.043,1.73,10.066,2.07,15.135
			c0.716,10.682,3.274,20.883,6.559,31.037c3.264,10.091,5.885,20.399,8.504,30.684c0.959,3.766,1.399,7.727,1.565,11.621
			c0.919,21.594,1.53,43.202,2.608,64.787c0.252,5.033,1.609,10.084,3.017,14.965c1.165,4.037,6.203,5.752,9.673,3.396
			c2.206-1.497,4.416-3.52,5.63-5.829c2.174-4.134,4.005-8.548,5.266-13.044c5.668-20.224,13.639-39.406,25.257-56.957
			c2.152-3.251,4.688-6.362,7.535-9.014c6.9-6.427,13.779-12.945,21.228-18.7c12.557-9.703,23.629-20.782,32.927-33.571
			c6.447-8.868,13.251-17.571,17.404-27.895c10.78,1.696,21.263,4.289,30.649,10.18c-1.088,2.038-1.722,4.58-3.337,6.033
			c-10.786,9.705-17.438,22.288-24.272,34.677c-7.085,12.845-15.305,24.66-25.817,35.023
			c-18.767,18.502-37.487,36.915-52.538,58.964c-14.337,21.002-24.93,43.75-35.906,66.416c-1.016,2.099-1.579,4.462-2.039,6.765
			c-0.203,1.018,0.378,2.193,0.609,3.323c4.687,0.915,6.576-2.676,8.554-5.247c7.492-9.743,16.247-18.093,25.732-25.884
			c5.418-4.451,9.768-10.196,14.644-15.315c2.146-2.253,4.404-4.399,6.611-6.594l0.196,0.193c-0.401,2.309-0.407,4.78-1.274,6.898
			c-2.983,7.282-6.41,14.382-9.408,21.658c-7.517,18.243-16.58,35.689-26.291,52.848c-3.663,6.473-7.061,13.332-9.095,20.44
			c-4.163,14.549-1.56,28.109,8.844,39.612c8.451,9.344,20.187,10.849,30.894,3.948c2.957-1.906,5.698-4.187,8.362-6.499
			c9.06-7.86,15.23-17.986,21.6-27.937c12.934-20.206,24.963-41.032,40.576-59.402c2.285-2.689,4.627-5.405,7.318-7.66
			c9.133-7.655,19.47-13.31,30.521-17.706c14.321-5.696,28.18-12.204,40.095-22.27c2.081-1.758,4.66-2.927,7.008-4.367
			c4.584,8.201,8.597,16.793,13.888,24.509c7.622,11.115,13.183,23.251,19.386,35.09c2.633,5.026,2.519,9.562-0.133,14.546
			c-7.21,13.548-13.755,27.387-18.807,41.945c-5.796,16.702-12.996,33.003-12.095,51.266c0.057,1.163-0.154,2.361-0.387,3.513
			c-3.729,18.458-2.307,36.827,2.054,54.876c2.571,10.642,6.836,20.875,10.339,31.288c-2.679-0.605-5.386-1.102-8.031-1.825
			c-15.541-4.246-31.121-8.362-46.586-12.874c-17.713-5.167-35.32-10.702-52.973-16.076c1.433-4.068,2.486-8.322,4.366-12.171
			c7.518-15.395,11.422-31.69,13.42-48.628c1.053-8.922,1.741-18.257,7.308-25.836c6.55-8.918,9.345-20.049,17.05-28.235
			c0.509-0.541,0.988-1.426,0.941-2.113c-0.129-1.861,0.05-4.297-1.026-5.384c-1.07-1.081-4.052-1.696-5.273-0.968
			c-7.741,4.615-16.697,7.251-23.247,13.802c-14.03,14.031-25.145,30.163-34.147,47.794c-0.536,1.05-1.065,2.132-1.385,3.26
			c-4.554,16.025-14.799,28.431-25.655,40.453c-7.8-2.507-15.814-4.5-23.359-7.625c-18.055-7.478-35.864-15.552-53.832-23.245
			c-4.78-2.046-5.641-6.043-6.151-10.423c4.298-4.402,6.336-10.017,7.64-15.764c1.575-6.937,1.989-14.079-0.583-20.929
			c-2.144-5.709-6.523-8.025-12.228-6.28c-3.339,1.022-6.384,3.006-9.561,4.556c-4.21-6.917-8.419-13.833-12.629-20.75
			c0.78-0.11,1.566-0.184,2.337-0.335c14.43-2.826,18.85-12.52,11.176-24.781c-3.755-6-7.704-11.882-11.702-17.725
			c-4.256-6.221-7.536-12.739-9.212-20.233c-1.363-6.096-3.498-12.146-6.174-17.797c-6.231-13.158-12.608-26.279-19.698-38.984
			c-3.901-6.989-6.557-14.264-8.609-21.843c-2.259-8.342-4.293-16.75-6.215-25.177c-0.691-3.027-0.772-6.194-1.131-9.296l-0.03,0.03
			c3.063,2.976,6.653,5.576,9.093,8.997c8.233,11.542,15.418,23.701,20.231,37.16c1.312,3.669,3.227,7.18,5.273,10.512
			c1.685,2.743,4.365,4.412,7.714,4.904c9.265,1.362,17.207-5.815,16.489-15.224c-0.267-3.498-1.67-6.939-1.721-10.418
			c-0.145-9.996-2.994-19.344-6.007-28.708c-3.007-9.346-5.87-18.739-8.793-28.113C332.949,261.031,323.945,236.337,308.054,214.8z"
			/>
		<path fill="#FBC655" d="M888.682,342.768c0.319-1.906,0.125-4.114,1.042-5.668c5.603-9.502,12.177-18.275,20.083-26.045
			c8.6-8.452,16.274-6.145,22.079,3.503c3.176,5.279,4.692,11.586,6.741,17.504c3.076,8.884,4.932,18.113,8.821,26.806
			c7.513,16.795,19.096,30.618,31.156,44.052c8.126,9.052,17.235,17.215,25.768,25.911c2.128,2.169,3.727,4.856,5.57,7.309
			c-4.867,3.895-9.504,8.128-14.651,11.605c-10.091,6.817-19.334,14.539-27.707,23.376c-4.129,4.358-7.405,9.071-8.538,15.065
			c-3.873-4.137-8.179-7.21-14.309-6.464c-6.2,0.755-11.081,3.769-14.645,8.711c-1.795,2.49-3.27,5.36-4.228,8.276
			c-2.972,9.05,2.569,17.582,12.064,18.731c6.669,0.807,12.378-1.521,16.811-6.447c2.057-2.286,3.447-5.172,5.14-7.787
			c3.406,1.741,6.813,3.481,10.219,5.222c-3.078,4.041-6.242,8.019-9.216,12.135c-6.192,8.571-12.37,17.155-18.357,25.869
			c-1.511,2.2-2.473,4.85-3.273,7.422c-0.239,0.768,0.694,2.333,1.522,2.877c0.803,0.528,2.613,0.716,3.196,0.187
			c2.875-2.607,5.67-5.35,8.164-8.321c11.327-13.493,22.544-27.08,33.801-40.633c9.615-2.019,19.341-2.72,29.138-2.258
			c1.769,0.083,3.506,0.834,6.032,1.473c-1.149,2.932-1.658,5.227-2.855,7.077c-2.546,3.935-5.484,7.614-8.199,11.443
			c-3.838,5.411-2.072,10.749,4.401,12.583c2.98,0.844,6.182,0.907,9.283,1.325c-16.444,5.352-32.886,10.711-49.333,16.051
			c-3.734,1.212-7.598,2.11-11.178,3.667c-1.376,0.598-2.128,2.632-3.368,4.284c4.306,2.825,8.251,2.199,12.131,2.032
			c13.56-0.583,26.326-4.55,38.856-9.332c13.599-5.19,27.052-10.764,40.643-15.977c14.307-5.487,28.702-10.745,43.058-16.103
			c0.534,13.803-3.662,26.348-10.572,38.029c-7.908,13.368-18.609,24.216-31.278,33.132c-2.878,2.026-5.926,3.809-8.9,5.704
			c-0.899-5.385-3.555-9.301-8.797-11.48c-13.027-5.416-26.207-10.81-40.222-12.388c-15.488-1.744-31.164-1.852-46.763-2.553
			c-5.471-0.246-10.958-0.139-16.438-0.194c-1.152-2.05-2.127-4.228-3.488-6.129c-6.429-8.985-20.459-7.902-24.758,0.901
			c-0.838,1.716-1.887,3.33-2.992,5.258c-6.847-0.552-12.606,1.245-16.463,7.114c-8.171,1.043-16.409,1.718-24.5,3.198
			c-25.244,4.618-49.622,12.241-73.391,21.869c-6.913,2.8-13.867,5.499-20.801,8.245c0.547-2.69,0.937-5.423,1.667-8.063
			c3.171-11.467-1.917-18.421-12.198-21.969c-8.603-2.969-17.672-4.335-26.766-2.646c-15.116,2.807-30.279,4.729-45.685,4.203
			c-0.57-4.247-1.636-8.497-1.601-12.739c0.061-7.472,1.03-14.935,1.183-22.41c0.173-8.425,1.972-16.381,5.52-23.982
			c2.373-2.449,4.9-4.77,7.08-7.381c2.697-3.23,5.107-6.701,7.641-10.068c3.571,3.618,7.084,7.297,10.743,10.824
			c1.388,1.338,3.113,2.484,4.975-0.374c-5.029-9.061-9.93-18.431-15.326-27.508c-14.87-25.015-19.026-52.702-20.693-81.053
			c0.364-0.359,0.724-0.723,1.078-1.091c1.084,0.409,2.343,0.59,3.225,1.264c9.655,7.377,19.331,14.73,28.844,22.288
			c15.64,12.426,31.164,24.999,46.74,37.499c2.209,2.163,4.414,4.336,6.62,6.509c3.264,0.457,1.264-2.185,1.921-3.263
			c2.366,1.243,5.018,2.139,7.033,3.806c3.317,2.743,6.322,5.89,9.281,9.032c9.096,9.658,20.564,15.62,32.437,20.923
			c7.519,3.358,14.633,2.141,20.997-2.897c5.003-3.961,8.947-8.771,10.77-15.094c2.948-10.224,4.251-20.753,4.559-31.279
			c0.492-16.828,0.932-33.715-1.927-50.442c8.655-0.036,17.317-0.314,25.961-0.041c8.785,0.277,17.46,3.067,28.225,1.608
			c-3.075-2.55-5.088-3.461-7.304-4.016c-10.3-2.582-20.629-5.052-30.896-7.759c-3.532-0.932-7.572-0.846-11.013-3.775
			c2.93-3.694,5.338-6.753,7.77-9.793c10.33-12.908,20.795-25.711,30.948-38.756c4.826-6.202,9.137-12.812,13.503-19.357
			c0.835-1.252,0.834-3.062,1.218-4.615c-4.591,3.265-7.735,7.288-11.242,10.965C896.718,335.416,892.625,339.021,888.682,342.768z
			 M808.275,591.063c13.4-2.38,24.376-7.75,32.051-18.765c0.657-0.942,0.991-2.14,1.338-3.261c2.854-9.22-3.386-18.016-12.984-17.83
			c-3.013,0.059-6.372,0.856-8.924,2.393c-6.394,3.85-12.458,8.257-18.561,12.575c-1.582,1.119-2.985,2.598-4.18,4.138
			c-4.565,5.883-3.435,13.43,2.871,17.404C802.461,589.339,805.62,590.037,808.275,591.063z"/>
		<path fill="#E97D14" d="M450.142,375.751c-2.207,2.195-4.465,4.341-6.611,6.594c-4.876,5.119-9.226,10.864-14.644,15.315
			c-9.484,7.791-18.239,16.141-25.732,25.884c-1.977,2.571-3.867,6.162-8.554,5.247c-0.231-1.13-0.812-2.305-0.609-3.323
			c0.46-2.303,1.023-4.666,2.039-6.765c10.976-22.666,21.569-45.414,35.906-66.416c15.052-22.049,33.772-40.462,52.538-58.964
			c10.512-10.364,18.731-22.178,25.817-35.023c6.834-12.39,13.486-24.972,24.272-34.677c1.614-1.453,2.249-3.995,3.337-6.033
			c3.339,0.985,6.888,1.534,9.98,3.029c15.122,7.309,30.173,14.769,45.125,22.42c3.409,1.744,6.325,4.453,9.466,6.719
			c-2.646,3.916-5.074,8-7.98,11.71c-6.315,8.064-13.213,15.688-19.246,23.95c-7.568,10.363-17.662,17.972-27.338,25.952
			c-13.852,11.424-25.561,24.681-35.169,39.656c-6.158,9.598-10.884,20.117-16.198,30.251c-1.203,2.295-1.268,4.937,0.915,6.413
			c1.778,1.202,4.391,2.083,6.414,1.754c2.11-0.343,4.168-2.067,5.887-3.595c17.725-15.758,36.462-29.917,57.28-41.607
			c15.562-8.738,31.557-16.305,48.027-22.853c16.883-6.712,33.705-13.435,49.816-21.892c4.119-2.162,8.826-3.206,13.263-4.763
			c9.292,5.865,19.154,10.946,26.588,19.357c-7.963,2.234-16.013,4.19-23.862,6.76c-16.581,5.429-31.807,13.894-46.684,22.737
			c-8.693,5.168-17.077,11.407-22.666,20.376c-4.01,3.848-8.021,7.696-12.032,11.544c-2.349,1.441-4.927,2.609-7.008,4.367
			c-11.915,10.066-25.774,16.574-40.095,22.27c-11.05,4.396-21.388,10.051-30.521,17.706c-2.691,2.256-5.033,4.971-7.318,7.66
			c-15.613,18.37-27.642,39.196-40.576,59.402c-6.37,9.951-12.541,20.076-21.6,27.937c-2.664,2.311-5.405,4.593-8.362,6.499
			c-10.707,6.901-22.443,5.396-30.894-3.948c-10.405-11.503-13.007-25.063-8.844-39.612c2.034-7.108,5.432-13.968,9.095-20.44
			c9.711-17.16,18.775-34.605,26.291-52.848c2.998-7.276,6.425-14.376,9.408-21.658c0.868-2.118,0.874-4.589,1.273-6.899
			c0.134-0.362,0.27-0.722,0.407-1.083C450.543,375.157,450.343,375.454,450.142,375.751z"/>
		<path fill="#D6952B" d="M599.49,375.506c4.01-3.848,8.021-7.696,12.03-11.544c9.046-0.024,17.963,0.897,26.964,2.105
			c22.251,2.986,44.158,7.155,65.501,14.207c8.583,2.836,17.35,5.115,25.936,7.944c14.263,4.699,29.083,6.496,43.84,8.51
			c3.754,0.512,7.763-0.497,11.61-1.097c6.974-1.087,13.914-2.393,20.868-3.607c2.286,2,4.571,4,6.852,5.999
			c-25.542,10.781-49.557,23.83-68.05,46.187c-5.693-5.763-11.303-11.226-16.671-16.919c-11.684-12.392-25.216-22.529-39.05-32.299
			c-2.878-2.033-5.913-3.963-9.123-5.384c-7.784-3.447-13.478,0.586-12.757,9.1c1.062,12.533,2.001,25.101,3.783,37.542
			c2.923,20.404,8.035,40.124,20.826,57.017c3.555,4.696,6.66,9.733,9.972,14.614c-2.534,3.367-4.943,6.838-7.641,10.068
			c-2.18,2.611-4.707,4.932-7.079,7.38c-0.539-1.392-1.078-2.783-2.045-5.281c-2.143,2.367-4.048,3.785-5.035,5.681
			c-4.188,8.046-8.496,16.068-12.028,24.408c-5.216,12.317-5.856,25.246-3.364,38.329c3.794,19.917,14.044,36.679,25.981,52.568
			c1.638,2.18,3.846,3.949,5.882,5.807c1.954,1.784,4.309,1.668,6.695,1.085c1.324,1.679,3.004,2.783,4.941,1.311
			c3.087-2.344,5.755-5.274,8.953-7.432c15.468-10.44,30.957-20.868,47.9-28.869c6.935-2.746,13.889-5.445,20.801-8.245
			c23.769-9.628,48.148-17.251,73.391-21.869c8.091-1.48,16.329-2.154,24.5-3.198c-1.861,12.043,5.043,16.722,14.336,19.683
			c2.947,0.939,6.17,1.386,9.27,1.401c13.797,0.069,22.986-8.564,24.012-22.324c0.146-1.959,0.061-3.936,0.083-5.904
			c5.48,0.054,10.967-0.052,16.438,0.194c15.6,0.701,31.275,0.808,46.763,2.553c14.015,1.579,27.195,6.973,40.222,12.388
			c5.243,2.18,7.898,6.095,8.797,11.48c-0.706,2.11-1.416,4.221-2.131,6.331c-7.729-1.134-15.45-2.29-23.179-3.394
			c-7.744-1.106-15.508-2.451-23.081,0.904c-2.755,0.127-5.513,0.413-8.264,0.355c-26.472-0.556-52.891,0.286-79.243,2.905
			c-8.635,0.858-17.291,1.632-25.866,2.922c-21.846,3.287-43.605,7.072-65.078,12.373c-2.918,0.72-6.033,0.644-9.056,0.936
			c1.608-2.457,3.559-3.65,5.666-4.411c11.137-4.022,22.339-7.865,33.465-11.914c7.041-2.563,14.02-5.305,20.953-8.148
			c1.187-0.487,2.001-1.885,4.207-4.069c-3.418-0.359-5.359-1.113-6.922-0.634c-7.92,2.427-15.909,4.764-23.569,7.881
			c-27.417,11.155-54.689,22.666-82.063,33.927c-9.485,3.902-19.136,7.397-28.655,11.218c-6.273,2.518-12.312,5.466-15.813,11.763
			c-8.63-0.355-17.347,0.395-25.792-2.3c-1.431-0.457-3.132-0.068-4.708-0.069c-14.124-2.117-28.374-3.521-42.208-7.278
			c-1.771-0.481-3.342-1.695-5.005-2.568c10.833,0.868,21.666,1.735,32.498,2.602c0.094-0.512,0.187-1.024,0.281-1.536
			c-4.467-1.07-8.934-2.14-13.401-3.21c-14.432-3.455-29.176-5.703-43.098-11.136c-3.503-10.417-7.768-20.649-10.34-31.291
			c-4.361-18.049-5.782-36.419-2.054-54.876c0.233-1.152,0.444-2.35,0.387-3.513c-0.901-18.263,6.299-34.563,12.095-51.266
			c5.052-14.559,11.597-28.397,18.807-41.945c2.653-4.985,2.767-9.52,0.133-14.546c-6.203-11.84-11.764-23.976-19.386-35.09
			C608.087,392.299,604.074,383.707,599.49,375.506z"/>
		<path fill="#E97D14" d="M298.563,307.108c0.359,3.103,0.441,6.269,1.131,9.296c1.922,8.427,3.956,16.835,6.215,25.177
			c2.053,7.58,4.709,14.854,8.609,21.843c7.09,12.705,13.467,25.826,19.698,38.984c2.676,5.651,4.811,11.701,6.174,17.797
			c1.676,7.494,4.957,14.011,9.212,20.233c3.997,5.843,7.947,11.725,11.702,17.725c7.674,12.261,3.255,21.955-11.176,24.781
			c-0.772,0.151-1.558,0.225-2.322,0.335c-5.823-6.376-11.568-12.841-17.535-19.095c-3.525-3.694-7.203-7.385-12.827-7.694
			c-7.845-7.174-16.296-13.357-25.806-18.327c-5.456-2.852-10.143-7.364-14.775-11.57c-14.028-12.736-25.556-27.676-36.939-42.722
			c-1.42-1.877-2.666-3.916-4.267-5.622c-14.251-15.175-28.581-30.276-42.839-45.444c-2.137-2.273-4.026-4.78-6.026-7.179
			c0.974-2.113,1.667-4.416,2.96-6.308c8.402-12.287,16.57-24.76,25.518-36.641c10.622-14.105,22.351-27.278,36.729-37.822
			c1.535-1.126,2.633-2.846,3.934-4.291l-0.2,0.261c0.723-0.543,1.447-1.086,2.171-1.628c14.478-8.447,29.078-16.663,44.604-23.075
			c1.735-0.716,3.691-0.896,5.544-1.325c15.891,21.537,24.895,46.231,32.758,71.448c2.923,9.373,5.786,18.766,8.793,28.113
			c3.013,9.363,5.862,18.711,6.007,28.708c0.05,3.479,1.454,6.92,1.721,10.418c0.718,9.409-7.223,16.586-16.489,15.224
			c-3.348-0.492-6.029-2.161-7.714-4.904c-2.046-3.332-3.961-6.843-5.273-10.512c-4.813-13.459-11.998-25.618-20.231-37.16
			c-2.44-3.421-6.03-6.021-9.092-8.997c-0.283-0.152-0.566-0.303-0.85-0.455C297.977,306.824,298.27,306.966,298.563,307.108z"/>
		<path fill="#E97D14" d="M507.253,207.409c-4.153,10.324-10.957,19.027-17.404,27.895c-9.297,12.789-20.37,23.869-32.927,33.571
			c-7.448,5.755-14.328,12.273-21.228,18.7c-2.847,2.652-5.383,5.763-7.535,9.014c-11.618,17.551-19.589,36.732-25.257,56.957
			c-1.26,4.497-3.092,8.911-5.266,13.044c-1.215,2.31-3.424,4.332-5.63,5.829c-3.471,2.356-8.509,0.641-9.673-3.396
			c-1.408-4.881-2.766-9.931-3.017-14.965c-1.079-21.585-1.689-43.193-2.608-64.787c-0.166-3.894-0.606-7.855-1.565-11.621
			c-2.618-10.285-5.24-20.593-8.504-30.684c-3.285-10.154-5.842-20.355-6.559-31.037c-0.34-5.069-1.359-10.092-2.07-15.135
			c6.056-3.514,12.992-3.27,19.548-4.042c16.849-1.986,33.753-3.541,50.788-2.94c25.368,0.894,50.284,4.53,74.673,11.606
			C504.499,205.847,505.845,206.735,507.253,207.409z"/>
		<path fill="#73381F" d="M357.462,930.605c-10.872-13.982-21.847-27.886-32.592-41.965c-16.336-21.406-34.471-41.113-54.549-59.064
			c-31.195-27.89-62.309-55.874-95.761-81.093c-8.505-6.412-17.097-12.724-25.863-18.773c-26.798-18.492-47.659-42.362-64-70.32
			c-4.178-7.149-7.825-14.607-11.733-21.915c-14.807-27.696-21.814-57.488-22.774-88.647c-1.137-36.915,2.697-73.29,13.913-108.698
			c3.585-11.317,7.421-22.526,13.306-32.846c8.779-15.393,17.925-30.576,26.913-45.847c2.942,1.978,2.391,4.482,1.313,7.276
			c-2.112,5.476-4.028,11.027-6.025,16.548c-1.606,4.753-3.212,9.504-4.818,14.256c-2.533,7.878-5.067,15.756-7.6,23.634
			c-3.53,6.674-5.777,13.749-6.632,21.258c-6.46,19.245-11.041,38.882-12.361,59.2c-0.622,3.037-1.723,6.064-1.78,9.112
			c-0.229,12.184-0.339,24.38-0.052,36.561c0.11,4.656,1.405,9.283,2.16,13.924c0.073,1.968-0.054,3.968,0.248,5.901
			c4.719,30.186,17.599,57.13,33.116,83.013c0.392,0.654,1.098,1.119,1.658,1.672c0.644,1.423,1.075,2.999,1.966,4.247
			c13.935,19.514,29.407,37.706,46.867,54.173c0.276,0.26,0.682,0.382,1.03,0.566c7.593,6.75,14.93,13.82,22.85,20.161
			c6.99,5.596,14.631,10.379,21.984,15.52c10.426,7.698,20.815,15.447,31.314,23.046c1.867,1.352,4.186,2.078,6.297,3.094
			c6.137,5.35,12.306,10.664,18.404,16.059c9.881,8.741,19.715,17.536,29.569,26.308c11,12.019,21.999,24.037,32.999,36.056
			c8.963,11.574,17.926,23.148,26.889,34.722c4.373,5.739,8.746,11.478,13.122,17.213c4.544,7.845,9.751,15.172,16.605,21.21
			c7.326,8.61,14.652,17.22,21.978,25.831c0.498,1.677,0.995,3.355,2.044,6.889c-3.313-1.805-5.053-2.468-6.453-3.564
			c-7.683-6.014-15.275-12.144-22.916-18.211c-2.398-1.905-4.388-4.583-7.952-4.384l0.079,0.089
			C359.305,932.077,358.383,931.341,357.462,930.605z"/>
		<path fill="#73381F" d="M154.044,519.814c3.933-0.224,5.21,3.031,7.077,5.459c9.14,11.885,18.241,23.8,27.389,35.68
			c0.713,0.925,1.683,1.652,2.538,2.472c0.718,1.39,1.262,2.903,2.171,4.149c14.816,20.294,31.087,39.383,48.211,57.748
			c3.728,3.998,7.879,7.603,11.836,11.39c1.724,2.088,3.3,4.321,5.194,6.242c14,14.201,29.598,26.501,45.923,37.867
			c4.754,3.31,10.103,5.765,15.179,8.612c1.905,1.392,3.719,2.934,5.728,4.153c34.19,20.746,70.219,37.475,108.4,49.484
			c9.082,3.31,18.093,6.837,27.267,9.868c8.811,2.912,17.791,5.311,26.697,7.935c5.4,1.776,10.778,3.624,16.209,5.301
			c3.625,1.12,7.444,1.776,9.752,5.282c-10.5-1.557-21.024-2.973-31.494-4.712c-10.106-1.68-20.126-3.883-30.239-5.517
			c-16.82-2.718-32.965-7.745-48.896-13.608c-3.587-1.32-7.084-3.493-11.832-1.83c0.784,1.665,1.074,3.359,2.079,4.211
			c2.693,2.286,5.665,4.252,8.575,6.274c7.769,5.4,15.693,10.588,23.324,16.176c19.18,14.046,36.294,30.135,50.845,49.131
			c15.143,19.769,29.108,40.228,41.392,61.867c6.064,10.681,10.929,21.815,13.875,33.788c2.193,8.914,3.033,17.847,1.611,26.947
			c-5.468-3.403-6.898-9.362-8.296-14.802c-3.156-12.279-9.334-22.808-16.851-32.74c-3.891-6.25-7.783-12.501-11.675-18.751
			c-5.5-8.068-10.708-16.356-16.587-24.139c-5.395-7.142-11.513-13.738-17.312-20.575c-9.073-11.495-19.867-21.275-30.808-30.907
			c-9.102-11.549-21.202-19.899-31.922-29.714c-4.604-4.215-10.005-7.561-15.048-11.297c-8.684-7.8-17.412-15.544-27.783-21.128
			c-1.425-1.349-2.754-2.819-4.29-4.028c-12.679-9.983-25.227-20.11-36.621-31.585c-1.377-1.387-2.913-2.668-4.542-3.748
			c-11.141-7.385-22.326-14.702-33.497-22.042c-5.607-4.58-11.214-9.16-16.821-13.74c-7.172-7.125-14.343-14.25-21.515-21.375
			c-5.42-5.585-10.84-11.17-16.26-16.755c-4.915-5.496-9.829-10.992-14.744-16.488c-16.46-22.49-33.138-44.828-47.627-68.684
			c-1.395-3.177-2.744-6.375-4.196-9.526C154.655,528.229,153.56,524.182,154.044,519.814z"/>
		<path fill="#FE9129" d="M513.617,771.455c-2.309-3.506-6.128-4.162-9.752-5.282c-5.431-1.678-10.809-3.526-16.208-5.307
			c-0.778-5.806-0.844-11.827-2.551-17.341c-1.489-4.81-0.256-10.363-3.944-14.518c1.106-15.037-1.817-29.845-2.798-44.757
			c-0.349-5.312-2.96-10.57-5.044-15.645c-2.095-5.099-4.994-9.863-7.221-14.914c-2.388-5.415-4.309-10.956-4.092-17.101
			c0.15-4.243,1.588-7.592,4.607-10.476c7.486-7.15,14.919-8.303,25.45-0.618c4.041,2.949,7.473,7.11,10.249,11.333
			c5.405,8.22,10.478,16.7,15.093,25.389c6.849,12.895,12.915,26.208,19.806,39.079c6.694,12.503,13.941,24.713,21.102,36.96
			c1.573,2.69,3.805,4.994,5.732,7.474c0.676,5.24,4.698,8.642,7.128,12.918c3.191,5.617,8.092,10.292,9.322,16.986
			c-3.923,0.012-7.852,0.18-11.767,0.008c-12.553-0.551-25.111-1.081-37.647-1.924C525.236,773.326,519.437,772.231,513.617,771.455
			z"/>
		<path fill="#FBC655" d="M507.709,896.64c7.517,9.933,13.695,20.461,16.851,32.74c1.398,5.44,2.828,11.399,8.296,14.802
			c1.271,8.549-1.222,16.529-4.653,24.021c-3.092,6.753-6.963,13.283-11.351,19.282c-8.925,12.204-21.421,18.185-36.473,18.744
			c-9.08,0.336-18.05-0.209-26.896-2.78c-17.883-5.199-35.175-11.591-50.148-23.046c-2.788-2.133-5.33-4.588-7.984-6.897
			c20.258-0.27,37.046-9.558,52.687-21.069c12.386-9.116,21.957-21.153,31.735-32.964
			C487.511,910.127,495.559,900.766,507.709,896.64z"/>
		<path fill="#EFB14A" d="M678.146,294.732c-4.437,1.557-9.144,2.601-13.263,4.763c-16.112,8.457-32.933,15.18-49.816,21.892
			c-16.471,6.548-32.465,14.115-48.027,22.853c-20.817,11.69-39.554,25.849-57.28,41.607c-1.719,1.528-3.777,3.252-5.887,3.595
			c-2.023,0.329-4.636-0.552-6.414-1.754c-2.183-1.475-2.119-4.118-0.915-6.413c5.314-10.134,10.04-20.653,16.198-30.251
			c9.608-14.975,21.317-28.232,35.169-39.656c9.676-7.979,19.77-15.589,27.338-25.952c6.033-8.262,12.931-15.887,19.246-23.95
			c2.906-3.71,5.334-7.794,7.98-11.71c8.728,3.107,16.716,7.428,23.258,14.132c-1.404,4.633-4.316,8.251-7.532,11.761
			c-7.928,8.651-15.732,17.417-23.518,26.196c-0.974,1.098-2.1,2.516,0.209,4.425c1.417-0.767,3.108-1.551,4.663-2.545
			c12.211-7.804,24.46-15.552,36.538-23.559c2.519-1.67,4.376-4.341,6.538-6.55c2.549,0.791,5.425,1.072,7.59,2.461
			C659.641,282.12,668.856,288.484,678.146,294.732z"/>
		<path fill="#73381F" d="M702.02,507.88c-3.312-4.881-6.417-9.918-9.972-14.614c-12.791-16.893-17.903-36.613-20.826-57.017
			c-1.782-12.44-2.721-25.009-3.783-37.542c-0.721-8.514,4.973-12.547,12.757-9.1c3.209,1.421,6.244,3.352,9.123,5.384
			c13.834,9.77,27.366,19.907,39.05,32.299c5.367,5.693,10.978,11.156,16.671,16.919c18.493-22.357,42.508-35.406,68.05-46.187
			c1.938-0.253,3.894-0.395,5.799-0.782c8.761-1.779,17.508-3.626,27.424-5.691c3.638-4.427,7.973-9.958,12.581-15.253
			c8.965-10.303,18.083-20.473,27.142-30.703c0.917-0.984,1.83-1.963,2.742-2.943l-0.095,0.116
			c3.943-3.747,8.036-7.352,11.786-11.284c3.507-3.677,6.651-7.7,11.242-10.965c-0.384,1.553-0.383,3.363-1.218,4.615
			c-4.365,6.545-8.676,13.155-13.503,19.357c-10.153,13.046-20.617,25.849-30.948,38.756c-2.433,3.04-4.84,6.099-7.77,9.793
			c3.442,2.929,7.481,2.844,11.013,3.775c10.267,2.707,20.596,5.177,30.896,7.759c2.216,0.555,4.229,1.466,7.304,4.016
			c-10.764,1.459-19.44-1.331-28.225-1.608c-8.645-0.272-17.307,0.005-25.962,0.041c-2.817-0.913-5.265,0.09-7.889,1.108
			c-5.822,2.259-11.672,4.632-17.721,6.087c-16.52,3.975-31.886,10.743-46.621,18.923c-9.858,5.472-19.866,10.928-27.777,19.316
			c0.437,1.374,0.495,2.723,1.188,3.522c2.28,2.628,4.789,5.056,7.211,7.562c0.539,1.495,1.079,2.989,1.618,4.483
			c-0.568,0.572-1.136,1.143-1.703,1.714c-15.573-12.511-31.097-25.083-46.737-37.509c-9.513-7.558-19.189-14.911-28.844-22.288
			c-0.882-0.674-2.141-0.854-3.226-1.262c-0.511-0.235-1.02-0.472-1.53-0.71c0.151,0.6,0.302,1.199,0.453,1.799
			c1.667,28.351,5.823,56.038,20.693,81.053c5.395,9.076,10.296,18.447,15.326,27.508c-1.863,2.858-3.587,1.712-4.975,0.374
			C709.104,515.177,705.591,511.498,702.02,507.88z"/>
		<path fill="#EFB14A" d="M806.238,392.024c-6.954,1.214-13.894,2.52-20.868,3.607c-3.847,0.6-7.856,1.609-11.61,1.097
			c-14.757-2.014-29.576-3.81-43.84-8.51c-8.586-2.829-17.353-5.108-25.936-7.944c-21.343-7.053-43.25-11.222-65.501-14.207
			c-9.001-1.208-17.918-2.128-26.964-2.105c5.591-8.97,13.975-15.209,22.668-20.376c14.877-8.843,30.103-17.308,46.684-22.737
			c7.849-2.57,15.899-4.525,23.862-6.76c3.022,0.304,5.005,1.998,6.267,4.661c-2.193,1.607-4.376,3.227-6.58,4.817
			c-8.041,5.8-15.711,12.026-20.309,21.063c-2.685,5.276-0.179,9.429,5.813,9.888c5.109,0.391,10.417-0.463,15.35,0.584
			c11.77,2.5,23.604,1.339,35.407,1.623c5.586,0.135,10.994-0.894,15.455-4.722c4.979,3.719,9.991,7.396,14.931,11.167
			c8.36,6.382,16.763,12.714,24.968,19.29C799.662,385.366,802.85,388.819,806.238,392.024z"/>
		<path fill="#D8952B" d="M675.348,750.508c23.567-0.067,47.135-0.038,70.701-0.275c5.444-0.055,10.88-1.015,16.318-1.581
			c1.169-0.122,2.347-0.572,3.488-0.474c12.633,1.081,24.972-1.881,37.441-2.874c13.225-1.053,26.334-3.554,39.501-5.372
			c4.252-0.587,8.526-1.015,12.788-1.515c-1.013,3.606-2.038,7.208-3.035,10.818c-1.4,5.073-2.778,10.153-4.166,15.23
			c-7.557,2.056-15.016,4.641-22.691,6.061c-17.421,3.222-34.948,5.87-52.432,8.755c-0.778,0.128-1.546,0.381-2.326,0.417
			c-28.689,1.344-57.356,4.487-86.103,1.067c-0.891-3.27-1.818-6.531-2.666-9.812C680.363,763.98,675.45,758.046,675.348,750.508z"
			/>
		<path fill="#FE9129" d="M1023.736,537.607c-3.101-0.417-6.303-0.48-9.283-1.325c-6.473-1.834-8.238-7.172-4.401-12.583
			c2.715-3.828,5.653-7.508,8.199-11.443c1.197-1.85,1.706-4.145,2.855-7.077c-2.526-0.638-4.264-1.389-6.032-1.473
			c-9.798-0.462-19.524,0.24-29.14,2.26c6.99-8.827,13.836-17.777,21.011-26.456c8.408-10.17,17.102-20.103,25.672-30.139
			c5.416,3.194,10.841,6.375,16.247,9.586c15.497,9.203,28.006,21.505,37.621,36.708c3.574,5.652,6.955,11.483,6.505,18.592
			c-17.455,6.08-34.885,12.219-52.366,18.214C1035.062,534.379,1029.369,535.906,1023.736,537.607z"/>
		<path fill="#DA942A" d="M507.709,896.64c-12.15,4.126-20.198,13.487-27.936,22.833c-9.779,11.811-19.349,23.848-31.735,32.964
			c-15.641,11.511-32.429,20.799-52.687,21.069c-6.926-3.206-11.715-9.023-16.686-14.398c-5.797-6.268-10.909-13.189-16.061-20.02
			c-1.316-1.746-1.664-4.221-2.457-6.362c3.565-0.199,5.554,2.48,7.952,4.384c7.641,6.068,15.233,12.197,22.916,18.211
			c1.4,1.096,3.14,1.758,6.453,3.564c-1.048-3.534-1.546-5.211-2.043-6.89c3.469-2.562,7.045-4.99,10.387-7.706
			c10.648-8.654,21.816-16.787,31.657-26.287c13.658-13.184,28.631-24.44,44.437-34.782c4.394-2.875,8.845-5.069,14.129-5.33
			C499.926,884.139,503.818,890.39,507.709,896.64z"/>
		<path fill="#FE9129" d="M848.384,764.465c1.388-5.077,2.766-10.156,4.166-15.23c0.996-3.61,2.021-7.212,3.035-10.819
			c1.428-2.312,3.29-4.463,4.212-6.961c7.021-19.018,17.961-35.723,30.146-51.707c1.175-1.541,2.609-2.977,4.177-4.112
			c9.101-6.59,19.624-1.898,20.439,9.37c0.538,7.435,0.144,14.936,0.218,22.407c0.035,3.505-0.42,7.153,2.357,10.02
			c0.049,6.266,0.098,12.536,0.146,18.806c-6.885,4.788-13.769,9.576-20.654,14.363c-4.458,1.401-8.95,2.7-13.367,4.221
			C871.832,758.762,860.568,763.269,848.384,764.465z"/>
		<path fill="#73381F" d="M255.935,240.567c-1.301,1.444-2.399,3.165-3.934,4.291c-14.378,10.544-26.107,23.717-36.729,37.822
			c-8.948,11.882-17.117,24.354-25.518,36.641c-1.294,1.892-1.987,4.195-2.96,6.308c-7.698,9.947-13.378,20.983-17.684,32.758
			c-2.04,4.224-4.767,8.254-6.021,12.7c-5.444,19.293-11.261,38.541-15.334,58.139c-2.535,12.197-3.925,24.877-2.656,37.551
			c0.588,5.867,0.986,11.753,1.47,17.631c-3.338-0.403-4.172-3.037-5.143-5.64c-4.414-11.835-5.483-24.254-6.5-36.687
			c1.148-13.267,2.296-26.535,3.444-39.802c0.456-1.082,1.183-2.128,1.328-3.25c2.199-16.959,8.145-32.784,14.659-48.423
			c2.107-5.057,4.603-9.953,6.921-14.922c6.987-10.845,13.908-21.732,20.986-32.517c3.86-5.882,7.984-11.591,11.989-17.378
			c7.813-8.124,15.563-16.31,23.466-24.346c3.795-3.859,7.877-7.434,11.83-11.138c4.783-2.421,9.658-4.682,14.322-7.315
			C247.696,240.831,251.645,240.041,255.935,240.567z"/>
		<path fill="#D8952B" d="M161.278,335.684c-2.318,4.969-4.814,9.865-6.921,14.922c-6.514,15.639-12.46,31.464-14.659,48.423
			c-0.146,1.122-0.872,2.169-1.334,3.249c-8.167,0.205-14.935-3.294-21.533-7.662c-5.443-3.603-10.368-8.295-17.217-9.356
			c1.997-5.52,3.912-11.072,6.024-16.548c1.078-2.795,1.629-5.298-1.313-7.276c6.69-13.233,15.379-25.051,25.397-35.929
			c1.628,0.948,3.146,2.269,4.901,2.781C143.474,330.869,152.386,333.239,161.278,335.684z"/>
		<path fill="#D8952B" d="M993.204,681.496c5.176-1.837,10.398-3.556,15.516-5.545c4.886-1.899,9.18-2.04,12.526,2.79
			c1.773,2.558,4.568,2.603,7.36,2.936c17.999,2.147,36.061,2.644,54.155,2.208c4.856-0.117,9.48,0.75,13.712,2.913
			c1.488,0.761,2.245,2.952,3.338,4.491c-4.306,5.451-10.35,8.123-16.754,9.841c-6.317,1.695-12.806,2.745-19.219,4.078
			c-3.027-0.418-6.063-1.243-9.082-1.186c-19.125,0.36-38.246,0.962-57.371,1.353c-2.645,0.054-5.305-0.618-7.929-0.95
			c-1.792-3.856-1.152-7.304-0.198-10.659C990.433,689.636,991.877,685.583,993.204,681.496z"/>
		<path fill="#D8952B" d="M580.496,775.634c-1.23-6.694-6.131-11.369-9.322-16.986c-2.43-4.276-6.452-7.679-7.128-12.918
			c6.086,1.731,12.414,1.617,18.583,2.478c14.059,1.962,28.225,1.256,42.215,2.634c8.985,0.885,17.921,1.666,26.931,1.843
			c-0.464,9.047-3.642,17.84-2.526,27.035c-6.612,0.113-13.235,0.53-19.832,0.269c-10.132-0.402-20.258-1.131-30.364-1.991
			C592.845,777.469,586.68,776.439,580.496,775.634z"/>
		<path fill="#73381F" d="M993.204,681.496c-1.327,4.086-2.771,8.14-3.945,12.27c-0.954,3.355-1.594,6.803,0.198,10.659
			c2.623,0.332,5.283,1.004,7.929,0.95c19.125-0.391,38.246-0.993,57.371-1.353c3.019-0.057,6.055,0.768,9.082,1.186
			c-1.834,0.659-3.618,1.652-5.507,1.923c-12.884,1.851-25.837,3.269-38.677,5.379c-12.238,2.011-24.336,1.988-36.597-0.899
			c-4.262,3.046-8.569,5.831-12.547,9.026c-9.596,7.708-20.144,13.812-31.08,19.364c-7.767,3.942-15.596,7.45-24.265,9.1
			c-4.995,0.95-9.759,3.086-14.651,4.614c-1.789,0.559-3.644,0.904-7.602,1.865c2.064-2.798,2.863-3.881,3.688-4.97
			c6.911-4.794,13.796-9.582,20.679-14.37c12.254-6.194,24.587-12.239,36.731-18.645c6.234-3.289,12.156-7.176,18.167-10.879
			c3.897-2.4,6.226-5.895,6.728-10.513c0.254-2.341,0.507-4.682,0.76-7.024c1.87-5.936,3.76-11.865,5.599-17.81
			c0.617-1.995,1.706-4.061,3.87-3.318c1.466,0.503,3.002,2.539,3.363,4.147C993.172,675.199,993.015,678.387,993.204,681.496z"/>
		<path fill="#73381F" d="M1032.616,449.372c-8.57,10.036-17.264,19.969-25.672,30.139c-7.175,8.678-14.021,17.628-21.011,26.456
			c-11.255,13.551-22.472,27.137-33.799,40.631c-2.494,2.971-5.289,5.714-8.164,8.321c-0.583,0.529-2.394,0.341-3.196-0.187
			c-0.828-0.544-1.761-2.109-1.522-2.877c0.8-2.572,1.761-5.222,3.273-7.422c5.987-8.714,12.164-17.298,18.357-25.869
			c2.974-4.116,6.138-8.094,9.215-12.136c10.786-11.909,21.665-23.736,32.329-35.753c7.537-8.493,14.783-17.244,22.159-25.88
			c12.334-13.683,24.836-27.221,36.931-41.112c5.992-6.881,23.28-23.041,31.375-27.718c-8.142,9.624-14.784,18.762-23.189,26.407
			c-1.736,1.579-3.535,3.237-4.77,5.196c-8.618,13.674-20.015,25.136-29.855,37.831
			C1034.127,446.623,1033.43,448.043,1032.616,449.372z"/>
		<path fill="#73381F" d="M1023.736,537.607c5.633-1.701,11.326-3.227,16.888-5.135c17.48-5.995,34.911-12.133,52.366-18.214
			c10.527-3.051,21.036-6.145,31.574-9.143c7.865-2.237,15.767-4.349,25.436-7.006c-3.971,4.956-8.121,5.705-11.765,7.109
			c-11.325,4.363-22.763,8.429-34.115,12.723c-3.265,1.235-6.387,2.848-9.575,4.288c-14.357,5.358-28.752,10.615-43.059,16.102
			c-13.591,5.213-27.043,10.787-40.643,15.977c-12.53,4.783-25.297,8.749-38.856,9.332c-3.88,0.167-7.825,0.793-12.131-2.032
			c1.24-1.651,1.992-3.685,3.368-4.284c3.58-1.557,7.444-2.454,11.178-3.667C990.85,548.318,1007.292,542.959,1023.736,537.607z"/>
		<path fill="#FE9129" d="M1024.584,444.794c-7.376,8.636-14.622,17.387-22.159,25.88c-10.664,12.017-21.543,23.844-32.329,35.753
			c-3.405-1.74-6.811-3.48-10.219-5.218c-0.278-5.006-0.555-10.015-0.832-15.024c1.134-5.994,4.409-10.707,8.538-15.065
			c8.372-8.837,17.616-16.559,27.707-23.376c5.147-3.477,9.784-7.71,14.651-11.605
			C1016.329,436.472,1020.422,440.692,1024.584,444.794z"/>
		<path fill="#E97D14" d="M161.278,335.684c-8.891-2.444-17.804-4.815-26.655-7.396c-1.754-0.512-3.272-1.833-4.901-2.781
			c4.397-5.41,8.206-11.469,13.309-16.101c13.247-12.024,27.045-23.443,40.703-35.01c0.763-0.646,2.24-0.448,3.385-0.643
			c2.378,4.012,4.756,8.024,7.134,12.036c-4.005,5.787-8.129,11.496-11.989,17.378C175.186,313.952,168.264,324.839,161.278,335.684
			z"/>
		<path fill="#E97D14" d="M756.137,352.003c-4.461,3.828-9.87,4.857-15.455,4.722c-11.803-0.284-23.637,0.877-35.407-1.623
			c-4.933-1.047-10.242-0.193-15.35-0.584c-5.992-0.459-8.498-4.612-5.813-9.888c4.598-9.036,12.269-15.262,20.309-21.063
			c2.204-1.59,4.387-3.21,6.58-4.817C727.536,327.811,741.916,339.799,756.137,352.003z"/>
		<path fill="#FE9129" d="M649.248,779.719c-1.115-9.195,2.063-17.988,2.526-27.035c1.928-2.863,3.395-6.238,5.881-8.482
			c4.724-4.264,9.05-3.748,13.292,0.844c1.582,1.713,2.941,3.632,4.401,5.459c0.102,7.54,5.014,13.474,6.817,20.447
			c0.848,3.281,1.775,6.542,2.666,9.812C672.971,780.416,661.11,780.068,649.248,779.719z"/>
		<path fill="#E97D14" d="M642.629,273.617c-2.162,2.209-4.018,4.88-6.538,6.55c-12.078,8.007-24.327,15.755-36.538,23.559
			c-1.556,0.994-3.246,1.778-4.663,2.545c-2.309-1.909-1.183-3.327-0.209-4.425c7.787-8.779,15.59-17.545,23.518-26.196
			c3.217-3.51,6.129-7.128,7.532-11.761C632.269,265.559,638.523,267.724,642.629,273.617z"/>
		<path fill="#D6952B" d="M194.252,285.789c-2.378-4.012-4.756-8.024-7.134-12.036c0.778-0.849,1.411-1.938,2.357-2.509
			c12.924-7.809,26.147-15.056,40.076-20.94c-3.955,3.705-8.038,7.281-11.832,11.139
			C209.815,269.479,202.065,277.665,194.252,285.789z"/>
		<path fill="#73381F" d="M257.906,239.2c-0.724,0.542-1.448,1.085-2.171,1.628C256.459,240.286,257.182,239.743,257.906,239.2z"/>
		<path fill="#FBC655" d="M888.778,342.652c-0.913,0.979-1.825,1.959-2.742,2.943C886.947,344.616,887.862,343.634,888.778,342.652z
			"/>
		<path fill="#DA942A" d="M357.462,930.605c0.921,0.736,1.842,1.473,2.764,2.21C359.305,932.078,358.384,931.341,357.462,930.605z"
			/>
		<path fill="#E97D14" d="M146.568,484.408c-0.484-5.878-0.882-11.764-1.47-17.631c-1.269-12.674,0.12-25.354,2.656-37.551
			c4.073-19.598,9.89-38.846,15.334-58.139c1.254-4.446,3.981-8.477,6.021-12.7c4.143,9.338,8.599,18.557,12.382,28.045
			c7.339,18.405,16.669,35.758,27.181,52.479c6.918,11.004,14.496,21.592,21.526,32.528c7.887,12.271,15.647,24.631,23.157,37.135
			c4.428,7.374,3.597,14.574-1.513,19.568c-4.528,4.426-10.162,5.994-14.987,2.169c-9.488-7.521-20.72-9.178-31.881-11.371
			c-6.562-1.289-13.187-2.336-19.827-3.126c-8.011-0.953-15.246-3.575-21.941-8.129c-3.526-2.398-7.576-4.026-11.392-6.003
			c-2.741,1.422-5.352,3.232-8.246,4.189c-5.892,1.949-11.944,3.407-17.91,5.139c-1.368,0.397-3.264,0.432-2.853,3.497
			c6.369,1.557,12.967,3.413,19.673,4.713c3.749,0.727,7.677,0.53,11.524,0.75c0,0,0.042-0.151,0.041-0.154
			c-0.484,4.365,0.611,8.412,2.421,12.341c1.452,3.151,2.801,6.349,4.197,9.527c-3.809,0.924-7.613,1.874-11.431,2.763
			c-3.052,0.711-6.091,1.609-9.189,1.97c-10.528,1.229-20.987,3.26-31.695,2.572c-2.271-0.146-4.72,0.508-6.903,1.3
			c-7.024,2.55-13.971,5.313-20.929,8.042c-4.015,1.575-7.992,3.245-11.987,4.872c-0.755-4.64-2.051-9.268-2.16-13.924
			c-0.287-12.181-0.176-24.376,0.052-36.561c0.057-3.047,1.159-6.075,1.782-9.111c10.43,0.136,19.991-3.303,29.461-7.134
			c10.989-4.446,22.228-7.587,34.272-6.936c3.512,0.19,7.061-0.002,10.576-0.253C145.383,489.082,146.322,486.958,146.568,484.408z"
			/>
		<path fill="#FE9129" d="M433.691,743.068c-38.181-12.009-74.21-28.739-108.4-49.484c-2.01-1.219-3.823-2.761-5.728-4.157
			c0.885-6.474-2.578-11.956-4.126-17.863c-2.226-8.494-3.993-17.125-7.19-25.346c-0.509-9.394,0.583-18.921-2.33-28.116
			c1.412-11.629,1.24-23.549,6.126-34.548c2.481-5.586,6.794-9.672,11.83-12.848c7.2-4.541,16.935-3.241,24.114,2.816
			c4.607,3.887,8.155,8.621,10.191,14.257c5.475,15.153,11.379,30.195,15.915,45.633c5.903,20.088,13.081,39.571,23.079,57.957
			c2.231,4.103,5.346,7.725,8.053,11.569c0.799,0.779,1.598,1.56,2.397,2.34l-0.061-0.069c3.756,4.957,7.424,9.983,11.292,14.85
			c4.117,5.18,8.659,10.04,12.527,15.392C432.849,737.484,432.96,740.5,433.691,743.068z"/>
		<path fill="#73381F" d="M317.446,456.492c5.624,0.309,9.302,3.999,12.827,7.694c5.966,6.254,11.712,12.719,17.535,19.095
			c4.194,6.917,8.404,13.833,12.611,20.747c4.91,12.804,9.823,25.612,14.735,38.419c0.509,4.38,1.371,8.377,6.151,10.423
			c17.968,7.693,35.777,15.766,53.832,23.245c7.545,3.125,15.558,5.118,23.361,7.612c1.184,0.953,2.218,2.344,3.572,2.82
			c14.662,5.156,29.375,10.167,44.075,15.218c17.653,5.375,35.259,10.909,52.973,16.076c15.464,4.512,31.045,8.628,46.586,12.874
			c2.645,0.723,5.352,1.22,8.031,1.825c13.922,5.436,28.666,7.684,43.098,11.139c4.467,1.07,8.934,2.14,13.401,3.21
			c-0.094,0.512-0.187,1.024-0.281,1.536c-10.832-0.867-21.665-1.734-32.498-2.602c-1.311-0.122-2.622-0.244-3.937-0.362
			c-2.399-1.877-5.118-1.982-7.954-1.453c-4.669-0.527-9.339-1.055-14.008-1.576c-12.471-2.836-24.93-5.737-37.423-8.484
			c-4.145-0.911-8.378-1.423-12.571-2.118c-15.973-4.397-32.027-8.522-47.897-13.264c-17.393-5.198-34.609-10.986-51.917-16.468
			c-3.75-1.188-7.565-2.174-11.352-3.254c-10.368-3.775-20.733-7.55-31.099-11.324c-12.982-6.483-25.884-13.134-38.982-19.375
			c-5.999-2.858-12.273-5.258-18.613-7.261c-18.7-5.907-37.515-11.45-56.24-17.28c-4.398-1.369-9.377-1.906-12.106-6.492
			c4.071-3.779,8.837-2.447,13.348-1.517c14.924,3.076,29.794,6.411,44.703,9.563c1.752,0.37,3.615,0.216,6.143,0.341
			c-1.413-8.632-4.013-15.862-7.46-22.832c-3.732-15.022-12.105-27.735-20.256-40.543c-2.929-4.602-6.198-8.986-9.199-13.544
			C318.234,464.936,316.448,461.063,317.446,456.492z"/>
		<path fill="#73381F" d="M715.167,658.039c3.501-6.297,9.54-9.245,15.813-11.763c9.519-3.82,19.17-7.316,28.655-11.218
			c27.374-11.262,54.646-22.772,82.063-33.927c7.66-3.117,15.649-5.454,23.569-7.881c1.563-0.479,3.504,0.275,6.922,0.634
			c-2.206,2.184-3.02,3.582-4.207,4.069c-6.933,2.843-13.912,5.586-20.953,8.148c-11.127,4.049-22.329,7.891-33.465,11.914
			c-2.107,0.761-4.058,1.954-5.666,4.411c3.024-0.292,6.138-0.216,9.056-0.936c21.472-5.301,43.232-9.086,65.078-12.373
			c8.575-1.29,17.232-2.064,25.866-2.922c26.352-2.619,52.771-3.461,79.243-2.905c2.751,0.058,5.509-0.228,8.264-0.355
			c21.523,1.667,42.397,8.462,52.717,17.16c-4.561,1.313-4.559,1.312-11.901,0.15c-4.283-0.678-8.618-1.032-12.932-1.515
			c-3.92-0.439-7.84-0.881-11.765-1.279c-4.318-0.437-8.638-0.848-12.961-1.23c-4.32-0.383-8.64-0.818-12.97-1.044
			c-4.333-0.227-8.678-0.253-13.019-0.31c-3.946-0.052-7.893-0.069-11.839-0.028c-4.341,0.045-8.681,0.137-13.02,0.279
			c-4.337,0.141-8.678,0.28-13.006,0.584c-4.328,0.304-8.638,0.861-12.964,1.216c-3.933,0.323-7.883,0.437-11.811,0.803
			c-4.32,0.401-8.623,0.989-12.935,1.484c-4.305,0.494-8.612,0.972-12.92,1.457c-21.633,1.672-42.96,5.293-64.111,10.033
			c-1.952,0.249-3.963,0.28-5.849,0.78c-24.358,6.455-48.702,12.959-73.03,19.526c-1.474,0.398-2.778,1.43-4.16,2.167
			c-3.213,1.054-6.369,2.38-9.657,3.094C723.297,657.124,719.208,657.469,715.167,658.039z"/>
		<path fill="#FE9129" d="M819.97,630.694c21.152-4.74,42.478-8.362,64.111-10.033c-3.755,8.663-10.823,14.633-18.12,19.731
			c-12.393,8.659-23.323,18.835-33.327,29.939c-6.007,6.667-10.692,14.562-15.688,22.092c-3.26,4.914-5.916,10.226-9.044,15.233
			c-1.228,1.966-2.804,3.825-4.572,5.318c-3.336,2.818-8.566,0.932-8.978-3.481c-0.396-4.244-0.3-8.696,0.541-12.862
			c2.421-11.991,6.106-23.532,12.115-34.372C812.532,652.297,817.517,641.981,819.97,630.694z"/>
		<path fill="#FE9129" d="M715.167,658.039c4.041-0.569,8.13-0.914,12.107-1.778c3.288-0.714,6.443-2.04,9.657-3.094
			c-0.863,6.612-1.091,13.388-2.747,19.794c-2.119,8.193-1.896,16.388-1.935,24.643c-0.03,6.308,0.22,12.627-0.075,18.922
			c-0.143,3.067-0.727,6.331-2.012,9.085c-3.652,7.826-12.085,10.086-18.541,4.412c-4.01-3.524-6.724-8.578-9.766-13.115
			c-1.061-1.584-1.43-3.657-1.995-5.543c-4.856-16.211-9.734-32.415-14.462-48.663c-0.648-2.227-0.503-4.684-0.728-7.033
			c1.574,0.003,3.275-0.386,4.706,0.071C697.82,658.433,706.537,657.684,715.167,658.039z"/>
		<path fill="#FE9129" d="M561.56,631.83c4.193,0.695,8.426,1.207,12.571,2.118c12.493,2.746,24.952,5.648,37.423,8.484
			c-0.278,8.194-0.181,16.366-2.133,24.499c-1.072,4.465-0.062,9.39-0.53,14.053c-0.344,3.428-0.956,7.081-2.506,10.089
			c-4.433,8.608-14.805,9.804-21.653,2.818c-1.089-1.111-2.324-2.263-2.92-3.643c-7.435-17.216-16.379-33.871-19.917-52.556
			C561.534,635.786,561.66,633.787,561.56,631.83z"/>
		<path fill="#E97D14" d="M253.266,636.71c-3.956-3.786-8.107-7.391-11.836-11.39c-17.124-18.365-33.395-37.454-48.211-57.748
			c-0.91-1.246-1.453-2.76-2.171-4.149c4.258,0.298,8.622,0.116,12.764,0.987c11.135,2.343,22.276,3.936,33.708,3.592
			c4.105-0.123,8.605-1.193,12.764,2.111c-0.047,8.483-4.96,16.438-3.478,25.148c0.917,5.385,1.556,10.838,2.855,16.129
			c0.731,2.977,2.551,5.686,3.881,8.517c0.985,2.855,1.724,5.827,3.013,8.538C258.52,632.575,256.747,634.907,253.266,636.71z"/>
		<path fill="#D8952B" d="M253.266,636.71c3.481-1.803,5.253-4.135,3.29-8.264c-1.289-2.71-2.028-5.682-3.013-8.538
			c6.412-0.478,12.155,1.369,17.901,4.206c10.523,5.195,20.281,11.495,29.676,18.465c2.111,1.566,4.735,2.44,7.125,3.636
			c3.199,8.224,4.966,16.855,7.193,25.349c1.548,5.907,5.011,11.389,4.126,17.863c-5.077-2.843-10.425-5.298-15.179-8.608
			c-16.326-11.366-31.923-23.666-45.923-37.867C256.567,641.031,254.99,638.798,253.266,636.71z"/>
		<path fill="#D8952B" d="M433.691,743.068c-0.73-2.568-0.841-5.584-2.311-7.618c-3.868-5.352-8.41-10.211-12.527-15.392
			c-3.868-4.867-7.536-9.893-11.292-14.85c4.421-0.269,8.45,0.928,12.518,2.664c9.379,4.002,18.783,8.021,28.421,11.322
			c10.746,3.68,21.761,6.574,32.66,9.812c3.689,4.156,2.456,9.709,3.945,14.519c1.707,5.513,1.773,11.534,2.551,17.341
			c-8.907-2.619-17.887-5.018-26.698-7.929C451.783,749.905,442.773,746.378,433.691,743.068z"/>
		<path fill="#FE9129" d="M419.295,587.519c10.366,3.775,20.731,7.549,31.099,11.324c-1.511,9.437-6.171,17.808-9.124,26.759
			c-1.475,4.472-3.39,8.873-5.699,12.972c-1.691,3.002-4.01,5.868-6.658,8.058c-3.644,3.014-8.996,1.922-11.15-2.271
			c-1.569-3.054-2.873-6.641-2.913-10.006c-0.103-8.626-0.797-17.263,1.449-25.887C418.068,601.678,416.404,594.253,419.295,587.519
			z"/>
		<path fill="#D6952B" d="M979.665,689.18c-0.253,2.341-0.506,4.682-0.76,7.024c-0.502,4.618-2.831,8.113-6.728,10.513
			c-6.01,3.702-11.933,7.59-18.167,10.879c-12.143,6.406-24.477,12.451-36.731,18.645c-0.048-6.27-0.097-12.54-0.145-18.806
			c6.078,0.084,11.392-1.854,16.226-5.585c4.923-3.8,10.061-7.329,15.185-10.862c7.107-4.9,14.812-8.655,23.106-11.028
			C974.188,689.233,976.986,689.414,979.665,689.18z"/>
		<path fill="#DA942A" d="M350.088,522.667c3.446,6.97,6.047,14.2,7.46,22.832c-2.528-0.125-4.391,0.029-6.143-0.341
			c-14.909-3.152-29.779-6.487-44.703-9.563c-4.511-0.93-9.278-2.261-13.348,1.517c-6.859,0.364-13.148,2.583-18.775,6.386
			c-3.704,2.503-7.672,3.676-11.729,4.379c-2.968-3.139-1.574-5.956,0.704-7.367c5.983-3.707,11.995-8.158,18.626-9.869
			c15.736-4.06,31.963-5.331,47.811-0.474c6.974,2.137,12.15,1.491,16.554-4.394C347.465,524.542,348.894,523.692,350.088,522.667z"
			/>
		<path fill="#DA942A" d="M154.002,519.971c-3.847-0.22-7.775-0.023-11.524-0.75c-6.706-1.3-13.303-3.156-19.673-4.713
			c-0.41-3.065,1.486-3.1,2.853-3.497c5.966-1.732,12.018-3.19,17.91-5.139c2.894-0.957,5.505-2.767,8.246-4.189
			C152.545,507.78,153.274,513.875,154.002,519.971z"/>
		<path fill="#D6952B" d="M625.562,644.008c2.835-0.529,5.555-0.424,7.954,1.453C630.656,646.141,627.893,646.259,625.562,644.008z"
			/>
		<path fill="#D8952B" d="M407.622,705.277c-0.799-0.78-1.598-1.56-2.397-2.34C406.024,703.718,406.823,704.498,407.622,705.277z"/>
		<path fill="#E97D14" d="M506.144,601.765c-14.699-5.051-29.412-10.063-44.075-15.218c-1.355-0.476-2.388-1.867-3.572-2.82
			c10.854-12.009,21.1-24.415,25.653-40.441c0.32-1.128,0.849-2.21,1.385-3.26c9.002-17.631,20.117-33.763,34.147-47.794
			c6.55-6.551,15.507-9.187,23.247-13.802c1.221-0.728,4.204-0.113,5.273,0.968c1.076,1.087,0.896,3.523,1.026,5.384
			c0.048,0.687-0.432,1.572-0.941,2.113c-7.705,8.186-10.5,19.317-17.05,28.235c-5.566,7.579-6.255,16.913-7.308,25.836
			c-1.998,16.938-5.902,33.232-13.42,48.628C508.63,593.444,507.577,597.698,506.144,601.765z"/>
		<path fill="#E97D14" d="M375.154,542.446c-4.912-12.807-9.825-25.615-14.735-38.419c3.179-1.548,6.224-3.532,9.563-4.553
			c5.705-1.745,10.085,0.571,12.228,6.28c2.572,6.85,2.158,13.992,0.583,20.929C381.49,532.43,379.452,538.044,375.154,542.446z"/>
		<path fill="#FE9129" d="M761.689,463.54c-2.421-2.505-4.931-4.933-7.21-7.561c-0.693-0.799-0.751-2.149-1.188-3.522
			c7.911-8.388,17.919-13.843,27.777-19.316c14.735-8.179,30.101-14.948,46.621-18.923c6.048-1.455,11.899-3.827,17.721-6.087
			c2.624-1.018,5.072-2.021,7.889-1.108c2.86,16.727,2.419,33.614,1.927,50.442c-0.308,10.527-1.611,21.055-4.559,31.279
			c-1.823,6.323-5.766,11.133-10.77,15.094c-6.364,5.038-13.478,6.255-20.997,2.897c-11.873-5.302-23.342-11.265-32.437-20.923
			c-2.96-3.143-5.965-6.29-9.281-9.032c-2.015-1.667-4.667-2.563-7.033-3.806l0.074,0.072c-0.876-0.794-1.753-1.587-2.629-2.381
			l0.198,0.144c-0.837-0.86-1.674-1.72-2.511-2.58l0.151,0.208C765.153,466.065,764.05,464.322,761.689,463.54z"/>
		<path fill="#FE9129" d="M765.18,612.935c-16.943,8.001-32.432,18.428-47.9,28.869c-3.198,2.159-5.866,5.089-8.953,7.432
			c-1.938,1.471-3.617,0.367-4.94-1.311c-1.156-3.712-2.089-7.512-3.511-11.12c-4.625-11.73-9.739-23.277-14.028-35.125
			c-1.978-5.464-2.479-11.463-3.65-17.22c15.406,0.526,30.57-1.396,45.685-4.203c9.094-1.689,18.163-0.323,26.766,2.646
			c10.281,3.549,15.369,10.502,12.198,21.969C766.117,607.511,765.727,610.244,765.18,612.935z"/>
		<path fill="#73381F" d="M682.198,584.459c1.171,5.756,1.672,11.756,3.65,17.22c4.289,11.848,9.402,23.395,14.028,35.125
			c1.423,3.608,2.356,7.408,3.511,11.12c-2.388,0.583-4.743,0.698-6.697-1.085c-2.036-1.858-4.244-3.627-5.882-5.807
			c-11.937-15.889-22.187-32.651-25.981-52.568c-2.492-13.082-1.852-26.012,3.364-38.329c3.532-8.341,7.839-16.362,12.028-24.408
			c0.987-1.896,2.892-3.313,5.035-5.681c0.968,2.498,1.507,3.889,2.045,5.281c-3.548,7.602-5.348,15.558-5.52,23.983
			c-0.153,7.475-1.122,14.938-1.183,22.41C680.562,575.962,681.628,580.213,682.198,584.459z"/>
		<path fill="#73381F" d="M931.575,572.479c-0.022,1.969,0.063,3.945-0.083,5.904c-1.026,13.76-10.215,22.392-24.012,22.324
			c-3.1-0.015-6.323-0.462-9.27-1.401c-9.293-2.961-16.197-7.64-14.336-19.683c3.857-5.87,9.616-7.667,16.463-7.115
			c1.105-1.928,2.154-3.541,2.992-5.258c4.3-8.803,18.33-9.886,24.758-0.901C929.448,568.252,930.422,570.429,931.575,572.479z"/>
		<path fill="#73381F" d="M808.275,591.063c-2.654-1.026-5.813-1.724-8.389-3.346c-6.306-3.974-7.436-11.521-2.871-17.404
			c1.195-1.539,2.598-3.019,4.18-4.138c6.102-4.317,12.167-8.725,18.561-12.575c2.552-1.537,5.911-2.334,8.924-2.393
			c9.598-0.186,15.839,8.609,12.984,17.83c-0.347,1.121-0.682,2.319-1.338,3.261C832.651,583.313,821.675,588.683,808.275,591.063z"
			/>
		<path fill="#73381F" d="M959.045,486.185c0.277,5.009,0.554,10.018,0.832,15.024c-1.692,2.611-3.082,5.498-5.139,7.784
			c-4.432,4.926-10.141,7.254-16.811,6.447c-9.495-1.149-15.036-9.681-12.064-18.731c0.957-2.916,2.432-5.786,4.228-8.276
			c3.563-4.942,8.445-7.956,14.645-8.711C950.865,478.976,955.172,482.048,959.045,486.185z"/>
		<path fill="#73381F" d="M768.227,476.239c-2.206-2.173-4.411-4.346-6.62-6.509c0.564-0.562,1.132-1.133,1.7-1.705
			c0.722,0.067,1.43,0.205,2.124,0.414l-0.151-0.207c0.837,0.86,1.674,1.72,2.511,2.579l-0.198-0.143
			c0.101,0.809,0.202,1.617,0.304,2.426C768.007,474.142,768.117,475.19,768.227,476.239z"/>
		<path fill="#D6952B" d="M768.227,476.239c-0.11-1.048-0.221-2.097-0.332-3.147c0.775-0.025,1.551-0.039,2.327-0.044l-0.074-0.072
			C769.492,474.054,771.491,476.696,768.227,476.239z"/>
		<path fill="#EFB14A" d="M450.142,375.751c0.2-0.297,0.401-0.594,0.601-0.891c-0.136,0.36-0.272,0.721-0.407,1.083
			C450.339,375.944,450.142,375.751,450.142,375.751z"/>
		<path fill="#EFB14A" d="M298.563,307.108c-0.293-0.142-0.586-0.284-0.879-0.426c0.283,0.152,0.567,0.303,0.85,0.455
			L298.563,307.108z"/>
		<path fill="#D8952B" d="M68.529,563.205c3.994-1.627,7.972-3.297,11.987-4.872c6.958-2.73,13.905-5.492,20.929-8.042
			c2.183-0.792,4.631-1.446,6.903-1.3c10.708,0.688,21.167-1.344,31.695-2.572c3.098-0.362,6.137-1.26,9.189-1.97
			c3.818-0.889,7.623-1.839,11.431-2.763c14.487,23.855,31.166,46.194,47.627,68.685c-18.243,0.631-34.287,7.478-49.144,17.548
			c-5.826,3.949-11.264,8.503-17.248,12.18c-9.484,5.829-20.174,8.552-31.015,10.545c-2.763,0.508-5.428,0.827-7.332,3.149
			c-0.56-0.553-1.266-1.019-1.658-1.672c-15.517-25.883-28.397-52.827-33.116-83.013C68.475,567.173,68.602,565.173,68.529,563.205z
			"/>
		<path fill="#E97D14" d="M384.362,761.253c5.039,3.741,10.44,7.086,15.044,11.301c10.72,9.815,22.819,18.164,31.922,29.715
			c-1.786,2.017-4.13,3.76-5.27,6.091c-7.755,15.854-19.051,29.658-26.25,45.834c-4.999,11.233-13.064,20.52-20.886,29.726
			c-6.547,7.705-14.664,14.076-22.086,21.038c-4.373-5.739-8.746-11.478-13.119-17.218c3.721-6.905,8.071-13.551,11.037-20.766
			c6.624-16.109,14.996-31.158,24.969-45.389c1.195-1.705,1.637-3.938,2.671-6.538c-2.154,0-3.321-0.214-4.382,0.032
			c-14.408,3.35-27.341,10.068-39.333,18.416c-8.008,5.575-16.604,10.75-21.851,19.524c-11-12.019-21.999-24.037-32.997-36.058
			c9.107-8.212,19.492-14.453,30.907-18.704c20.566-7.659,40.335-16.932,59.462-27.659
			C378.397,768.246,382.236,765.744,384.362,761.253z"/>
		<path fill="#E97D14" d="M103.551,653.791c1.904-2.322,4.568-2.641,7.332-3.149c10.842-1.993,21.531-4.716,31.015-10.545
			c5.984-3.678,11.421-8.232,17.248-12.18c14.857-10.07,30.9-16.917,49.144-17.548c4.913,5.495,9.828,10.991,14.742,16.488
			c-8.317,2.001-12.426,9.054-17.574,14.81c-0.52,0.581,0.023,2.112,0.109,4.012c9.943,0.313,19.648,0.972,29.365-0.348
			c1.504-0.205,2.909-1.129,4.36-1.72c7.172,7.125,14.343,14.25,21.513,21.374c-2.405,1.925-4.613,4.19-7.25,5.712
			c-6.775,3.91-13.738,7.493-20.63,11.2c-2.417,1.3-4.763,2.776-7.281,3.841c-11.249,4.755-23.043,7.624-34.962,10.134
			c-4.958,1.044-10.023,2.307-14.556,4.479c-7.772,3.725-15.163,8.242-22.715,12.426c-0.345-0.186-0.752-0.308-1.028-0.568
			c-17.46-16.466-32.933-34.659-46.867-54.173C104.625,656.791,104.195,655.214,103.551,653.791z"/>
		<path fill="#E97D14" d="M277.626,678.727c11.171,7.339,22.356,14.657,33.497,22.042c1.628,1.079,3.164,2.36,4.542,3.748
			c11.394,11.475,23.942,21.602,36.621,31.585c1.535,1.209,2.865,2.679,4.283,4.032c-7.25,1.743-14.426,3.864-21.749,5.142
			c-15.399,2.686-30.869,4.976-46.322,7.342c-14.578,2.232-28.025,7.083-40.074,15.856c-3.709,2.7-8.351,4.119-12.565,6.125
			c-2.11-1.015-4.43-1.742-6.297-3.094c-10.498-7.599-20.887-15.348-31.311-23.049c2.141-0.953,4.669-1.457,6.354-2.927
			c9.19-8.019,18.298-16.142,27.186-24.495c6.61-6.212,12.909-12.761,19.22-19.283c5.233-5.408,10.738-10.457,17.252-14.284
			C272.051,685.24,275.611,682.827,277.626,678.727z"/>
		<path fill="#D8952B" d="M235.858,774.597c4.215-2.006,8.856-3.425,12.565-6.125c12.05-8.772,25.496-13.623,40.074-15.856
			c15.454-2.367,30.923-4.656,46.322-7.342c7.323-1.278,14.499-3.399,21.749-5.142c10.377,5.581,19.105,13.325,27.79,21.125
			c-2.123,4.487-5.962,6.988-10.158,9.342c-19.127,10.727-38.895,20-59.462,27.659c-11.415,4.251-21.8,10.492-30.907,18.704
			c-9.855-8.77-19.689-17.565-29.57-26.306C248.164,785.261,241.995,779.947,235.858,774.597z"/>
		<path fill="#E97D14" d="M496.035,877.889c-5.284,0.261-9.735,2.455-14.129,5.33c-15.806,10.342-30.779,21.598-44.437,34.782
			c-9.841,9.5-21.009,17.633-31.657,26.287c-3.342,2.716-6.918,5.144-10.387,7.706c-7.326-8.609-14.652-17.219-21.974-25.832
			c3.029-2.503,6.26-4.794,9.043-7.538c13.494-13.306,26.773-26.83,40.319-40.082c8.768-8.578,16.131-18.277,23.737-27.83
			c4.856-6.099,8.292-13.573,15.585-17.537c5.799,6.837,11.917,13.433,17.312,20.575
			C485.327,861.532,490.534,869.821,496.035,877.889z"/>
		<path fill="#D8952B" d="M462.136,833.175c-7.294,3.963-10.729,11.438-15.585,17.537c-7.606,9.553-14.969,19.252-23.737,27.83
			c-13.545,13.252-26.825,26.776-40.319,40.082c-2.784,2.744-6.014,5.035-9.043,7.538c-6.859-6.036-12.066-13.362-16.61-21.207
			c7.418-6.958,15.535-13.329,22.082-21.034c7.822-9.206,15.887-18.493,20.886-29.726c7.199-16.176,18.495-29.981,26.25-45.834
			c1.14-2.331,3.484-4.074,5.27-6.091C442.269,811.901,453.063,821.68,462.136,833.175z"/>
		<path fill="#D8952B" d="M277.626,678.727c-2.015,4.1-5.575,6.513-9.364,8.739c-6.514,3.827-12.018,8.876-17.252,14.284
			c-6.311,6.522-12.61,13.071-19.22,19.283c-8.887,8.352-17.996,16.476-27.186,24.495c-1.685,1.47-4.212,1.974-6.354,2.927
			c-7.356-5.139-14.997-9.921-21.987-15.517c-7.92-6.341-15.258-13.41-22.85-20.161c7.549-4.182,14.941-8.699,22.712-12.424
			c4.533-2.172,9.598-3.435,14.556-4.479c11.919-2.51,23.714-5.379,34.962-10.134c2.518-1.065,4.863-2.541,7.281-3.841
			c6.891-3.708,13.855-7.29,20.63-11.2c2.637-1.522,4.845-3.787,7.25-5.712C266.413,669.567,272.019,674.147,277.626,678.727z"/>
		<path fill="#D8952B" d="M146.568,484.408c-0.246,2.55-1.185,4.674-4.055,4.879c-3.515,0.251-7.064,0.443-10.576,0.253
			c-12.045-0.651-23.283,2.49-34.272,6.936c-9.47,3.831-19.03,7.27-29.461,7.134c1.318-20.319,5.899-39.956,12.359-59.199
			c8.162,0.428,16.389-0.466,24.457,1.997c2.415,0.737,5.391-0.076,8.057-0.507c7.298-1.18,14.568-2.534,21.849-3.819
			c1.017,12.432,2.086,24.852,6.5,36.687C142.396,481.371,143.23,484.006,146.568,484.408z"/>
		<path fill="#E97D14" d="M134.925,442.081c-7.281,1.285-14.551,2.639-21.849,3.819c-2.666,0.431-5.642,1.244-8.057,0.507
			c-8.068-2.463-16.295-1.569-24.457-1.997c0.855-7.511,3.102-14.585,6.634-21.26c5.499,0.021,10.996,0.032,16.493,0.067
			c4.709,0.03,8.99-1.177,14.411-4.365c-8.478-6.91-15.902-13.111-23.306-19.335c1.606-4.752,3.211-9.504,4.818-14.256
			c6.85,1.06,11.776,5.752,17.218,9.355c6.599,4.368,13.366,7.867,21.534,7.662C137.221,415.547,136.073,428.814,134.925,442.081z"
			/>
		<path fill="#D8952B" d="M316.83,853.02c5.247-8.775,13.843-13.949,21.851-19.524c11.992-8.348,24.924-15.066,39.333-18.416
			c1.06-0.246,2.228-0.032,4.382-0.032c-1.034,2.6-1.476,4.832-2.671,6.538c-9.973,14.231-18.345,29.28-24.969,45.389
			c-2.967,7.215-7.316,13.862-11.037,20.766C334.756,876.168,325.793,864.594,316.83,853.02z"/>
		<path fill="#DA942A" d="M94.795,399.517c7.403,6.224,14.828,12.426,23.306,19.335c-5.422,3.188-9.703,4.395-14.411,4.365
			c-5.497-0.035-10.994-0.045-16.493-0.067C89.728,415.273,92.261,407.395,94.795,399.517z"/>
		<path fill="#DA942A" d="M239.291,643.612c-1.451,0.591-2.857,1.516-4.36,1.72c-9.717,1.32-19.423,0.661-29.365,0.348
			c-0.086-1.9-0.629-3.431-0.109-4.012c5.148-5.756,9.257-12.809,17.574-14.81C228.451,632.441,233.871,638.027,239.291,643.612z"/>
		<path fill="#FBC655" d="M765.431,468.439c-0.694-0.209-1.402-0.346-2.124-0.414c-0.539-1.494-1.078-2.988-1.618-4.483
			C764.05,464.322,765.153,466.065,765.431,468.439z"/>
		<path fill="#FBC655" d="M681.72,409.769c-0.151-0.6-0.302-1.199-0.453-1.799c0.509,0.237,1.019,0.474,1.53,0.71
			C682.444,409.047,682.084,409.41,681.72,409.769z"/>
		<path fill="#FBC655" d="M770.222,473.048c-0.776,0.005-1.552,0.02-2.327,0.044c-0.101-0.807-0.202-1.615-0.303-2.424
			C768.47,471.461,769.346,472.254,770.222,473.048z"/>
		<path fill="#FBC655" d="M767.791,470.811c-0.837-0.859-1.674-1.719-2.511-2.579C766.117,469.091,766.954,469.951,767.791,470.811z
			"/>
	</g>
</g>
</svg>
